<!-- <svg version="1.1" xmlns="http://www.w3.org/2000/svg" xmlns:xlink="http://www.w3.org/1999/xlink" x="120px" y="0px" width="25.02px" height="29px" viewBox="120 0 25.02 29" enable-background="new 0 0 272.02 62.37" xml:space="preserve">
    <path fill="#636a52" class="logo-symbol" d="M136.01,26.73l-10.92-6.3v-6.94l10.92-6.34l7.59,4.41l-2.93,1.68l-4.27-2.37c-0.25-0.14-0.55-0.13-0.8,0.01
        l-9.17,5.32c-0.24,0.14-0.39,0.4-0.39,0.68v0c0,0.28,0.15,0.54,0.39,0.68l9.17,5.33c0.12,0.07,0.26,0.11,0.4,0.11
        c0.14,0,0.28-0.04,0.4-0.11l10.52-6.11v3.72L136.01,26.73z M132.93,14.26l3.1-1.8l3.07,1.7l-3.1,1.8L132.93,14.26z M136.01,1.7
        L146.93,8v6.94l-10.92,6.34l-7.59-4.41l2.93-1.69l4.27,2.37c0.24,0.14,0.55,0.13,0.79-0.01l9.17-5.32c0.24-0.14,0.39-0.4,0.39-0.68
        v0v0c0-0.28-0.15-0.54-0.39-0.68l-9.17-5.33c-0.25-0.14-0.55-0.14-0.8,0l-10.52,6.11V7.93L136.01,1.7z M148.12,6.87l-11.71-6.76
        c-0.25-0.14-0.55-0.14-0.79,0L123.9,6.79c-0.25,0.14-0.4,0.4-0.4,0.69v5.55v0v7.85c0,0.28,0.15,0.54,0.4,0.68l11.71,6.76
        c0.12,0.07,0.26,0.11,0.4,0.11c0.14,0,0.27-0.04,0.4-0.1l11.71-6.69c0.25-0.14,0.4-0.4,0.4-0.68V15.4v0V7.55
        C148.52,7.27,148.37,7.01,148.12,6.87"></path>
    <path fill="#3c393c" class="logo-text" d="M10.66,55.15v-9.4h1.66v9.99c0,4.54-2.29,6.63-6.16,6.63c-3.9,0-6.16-2.09-6.16-6.63v-9.99h1.66v9.4
        c0,4.06,1.49,5.79,4.5,5.79C9.16,60.94,10.66,59.21,10.66,55.15 M23.79,47.18c2.69,0,3.99,1.16,3.99,3.06v0.23
        c0,1.97-1.25,3.16-4.26,3.16h-3.8v-6.45H23.79z M28.04,62.12h1.81l-3.49-7.42c1.92-0.66,3.13-2.18,3.13-4.15V50.2
        c0-2.57-2-4.45-5.46-4.45h-5.99v16.37h1.68v-7.06h4.33c0.22,0,0.43,0,0.65-0.02L28.04,62.12z M36.65,54.24h3.94
        c3.46,0,4.52,1.04,4.52,3.04v0.5c0,1.93-1.27,2.93-3.99,2.93h-4.47V54.24z M40.4,47.13c2.72,0,3.94,0.7,3.94,2.63v0.41
        c0,2.04-1.37,2.72-3.78,2.72h-3.92v-5.77H40.4z M34.99,62.12h6.28c3.75,0,5.56-1.63,5.56-4.31v-0.57c0-2.27-1.47-3.45-3.58-3.75
        c2.07-0.48,2.79-1.84,2.79-3.27v-0.48c0-2.68-1.83-4-5.51-4h-5.53V62.12z M56.08,51.22c0.43-1.11,0.77-1.93,1.42-4.06
        c0.7,2.13,1.01,2.95,1.44,4.06l1.68,4.43h-6.28L56.08,51.22z M58.47,45.75h-1.9l-6.45,16.37h1.73l1.97-5.09h7.34l1.92,5.09h1.8
        L58.47,45.75z M69.21,62.12h1.61V47.79c0.31,0.68,0.5,1,0.79,1.48l7.99,12.85h2V45.75h-1.61v14.32c-0.34-0.68-0.53-1.07-0.82-1.52
        l-7.96-12.8h-2V62.12z M95.21,45.75v16.37h10.37v-1.41h-8.68V45.75H95.21z M114.35,51.22c0.43-1.11,0.77-1.93,1.42-4.06
        c0.7,2.13,1.01,2.95,1.44,4.06l1.68,4.43h-6.28L114.35,51.22z M116.74,45.75h-1.9l-6.45,16.37h1.73l1.97-5.09h7.34l1.92,5.09h1.8
        L116.74,45.75z M138.07,55.15c0,4.06-1.49,5.79-4.5,5.79s-4.5-1.73-4.5-5.79v-9.4h-1.66v9.99c0,4.54,2.26,6.63,6.16,6.63
        c3.87,0,6.16-2.09,6.16-6.63v-9.99h-1.66V55.15 M145.45,62.12h1.61V47.79c0.31,0.68,0.5,1,0.79,1.48l7.99,12.85h2V45.75h-1.61v14.32
        c-0.34-0.68-0.53-1.07-0.82-1.52l-7.96-12.8h-2V62.12z M165.31,47.16h3.75c3.1,0,5.32,1.82,5.32,5.72v2.11
        c0,3.91-2.21,5.72-5.32,5.72h-3.75V47.16z M163.63,45.75v16.37h5.41c4.38,0,7.02-2.5,7.02-7.01v-2.34c0-4.52-2.65-7.01-7.02-7.01
        H163.63z M181.5,45.75v16.37h10.61v-1.41h-8.92v-6.29h8.25v-1.41h-8.25v-5.86h8.75v-1.41H181.5z M203.19,47.18
        c2.69,0,3.99,1.16,3.99,3.06v0.23c0,1.97-1.25,3.16-4.26,3.16h-3.8v-6.45H203.19z M207.45,62.12h1.8l-3.49-7.42
        c1.93-0.66,3.13-2.18,3.13-4.15V50.2c0-2.57-2-4.45-5.46-4.45h-5.99v16.37h1.68v-7.06h4.33c0.22,0,0.43,0,0.65-0.02L207.45,62.12z
            M214.4,45.75v16.37H225v-1.41h-8.92v-6.29h8.25v-1.41h-8.25v-5.86h8.76v-1.41H214.4z M228.83,45.75v1.41h5.53v14.96h1.68V47.16
        h5.56v-1.41H228.83z M244.36,45.75v1.41h5.53v14.96h1.68V47.16h5.55v-1.41H244.36z M261.41,45.75v16.37h10.61v-1.41h-8.92v-6.29
        h8.25v-1.41h-8.25v-5.86h8.75v-1.41H261.41z"></path>
    </svg> -->

<svg version="1.1" id="Layer_1" xmlns="http://www.w3.org/2000/svg" xmlns:xlink="http://www.w3.org/1999/xlink" x="0px" y="0px" width="25px" height="28.4px" viewBox="0 0 25 28.4" style="enable-background:new 0 0 25 28.4;" xml:space="preserve">
<style type="text/css">
	.st0{fill:#636A52;}
</style>
<path class="st0" d="M12.5,26.7L1.6,20.4v-6.9l10.9-6.3l7.6,4.4l-2.9,1.7l-4.3-2.4c-0.2-0.1-0.6-0.1-0.8,0l-9.2,5.3
	c-0.2,0.1-0.4,0.4-0.4,0.7l0,0c0,0.3,0.2,0.5,0.4,0.7l9.2,5.3c0.1,0.1,0.3,0.1,0.4,0.1s0.3,0,0.4-0.1l10.5-6.1v3.7L12.5,26.7z
	 M9.4,14.3l3.1-1.8l3.1,1.7L12.5,16L9.4,14.3z M12.5,1.7L23.4,8v6.9l-10.9,6.3l-7.6-4.4l2.9-1.7l4.3,2.4c0.2,0.1,0.6,0.1,0.8,0
	l9.2-5.3c0.2-0.1,0.4-0.4,0.4-0.7l0,0l0,0c0-0.3-0.1-0.5-0.4-0.7l-9.2-5.3c-0.2-0.1-0.6-0.1-0.8,0L1.6,11.6V7.9L12.5,1.7z M24.6,6.9
	L12.9,0.1c-0.2-0.1-0.6-0.1-0.8,0L0.4,6.8C0.2,6.9,0,7.2,0,7.5V13l0,0v7.9c0,0.3,0.2,0.5,0.4,0.7l11.7,6.8c0.1,0.1,0.3,0.1,0.4,0.1
	s0.3,0,0.4-0.1l11.7-6.7c0.2-0.1,0.4-0.4,0.4-0.7v-5.6l0,0V7.5C25,7.3,24.9,7,24.6,6.9"/>
</svg>
